{
    "asset" : {
        "generator" : "Khronos glTF Blender I/O v1.2.75",
        "version" : "2.0"
    },
    "scene" : 0,
    "scenes" : [
        {
            "name" : "Scene",
            "nodes" : [
                0,
                1,
                2,
                3,
                4,
                5
            ]
        }
    ],
    "nodes" : [
        {
            "mesh" : 0,
            "name" : "pusher",
            "translation" : [
                0,
                1.0010483264923096,
                0
            ]
        },
        {
            "mesh" : 1,
            "name" : "blocker",
            "translation" : [
                0,
                1.0144908428192139,
                0
            ]
        },
        {
            "name" : "Camera",
            "rotation" : [
                0.26626354455947876,
                0.6185281872749329,
                -0.2349570244550705,
                0.7009434700012207
            ],
            "translation" : [
                5.699217796325684,
                6.93557596206665,
                1.369683861732483
            ]
        },
        {
            "name" : "Sun",
            "translation" : [
                -1.44675874710083,
                2.916476011276245,
                0
            ]
        },
        {
            "mesh" : 2,
            "name" : "redMarker"
        },
        {
            "mesh" : 3,
            "name" : "square",
            "scale" : [
                1,
                0.06319373846054077,
                1
            ]
        }
    ],
    "materials" : [
        {
            "doubleSided" : true,
            "emissiveFactor" : [
                0,
                0,
                0
            ],
            "name" : "blackMaterial.001",
            "pbrMetallicRoughness" : {
                "baseColorFactor" : [
                    0.09850428998470306,
                    0.0887453630566597,
                    0.042606379836797714,
                    1
                ],
                "metallicFactor" : 0,
                "roughnessFactor" : 0
            }
        },
        {
            "doubleSided" : true,
            "emissiveFactor" : [
                0,
                0,
                0
            ],
            "name" : "whiteMaterial",
            "pbrMetallicRoughness" : {
                "baseColorFactor" : [
                    0.8006559014320374,
                    0.5806251168251038,
                    0.4344513714313507,
                    1
                ],
                "metallicFactor" : 0,
                "roughnessFactor" : 0
            }
        },
        {
            "doubleSided" : true,
            "emissiveFactor" : [
                0,
                0,
                0
            ],
            "name" : "redMaterial",
            "pbrMetallicRoughness" : {
                "baseColorFactor" : [
                    0.8000000715255737,
                    0,
                    0.002449670573696494,
                    1
                ],
                "metallicFactor" : 0,
                "roughnessFactor" : 0.5
            }
        },
        {
            "doubleSided" : true,
            "emissiveFactor" : [
                0,
                0,
                0
            ],
            "name" : "squareBorder",
            "pbrMetallicRoughness" : {
                "baseColorFactor" : [
                    0.00901828519999981,
                    0.0012889433419331908,
                    0.005121566355228424,
                    1
                ],
                "metallicFactor" : 0,
                "roughnessFactor" : 0.5
            }
        }
    ],
    "meshes" : [
        {
            "name" : "Cube.001",
            "primitives" : [
                {
                    "attributes" : {
                        "POSITION" : 0,
                        "NORMAL" : 1,
                        "TEXCOORD_0" : 2
                    },
                    "indices" : 3,
                    "material" : 0
                }
            ]
        },
        {
            "name" : "Cube.002",
            "primitives" : [
                {
                    "attributes" : {
                        "POSITION" : 4,
                        "NORMAL" : 5,
                        "TEXCOORD_0" : 6
                    },
                    "indices" : 7,
                    "material" : 1
                }
            ]
        },
        {
            "name" : "Cube",
            "primitives" : [
                {
                    "attributes" : {
                        "POSITION" : 8,
                        "NORMAL" : 9,
                        "TEXCOORD_0" : 10
                    },
                    "indices" : 11,
                    "material" : 2
                }
            ]
        },
        {
            "name" : "Cube.003",
            "primitives" : [
                {
                    "attributes" : {
                        "POSITION" : 12,
                        "NORMAL" : 13,
                        "TEXCOORD_0" : 14
                    },
                    "indices" : 15,
                    "material" : 3
                },
                {
                    "attributes" : {
                        "POSITION" : 16,
                        "NORMAL" : 17,
                        "TEXCOORD_0" : 18
                    },
                    "indices" : 19,
                    "material" : 1
                }
            ]
        }
    ],
    "accessors" : [
        {
            "bufferView" : 0,
            "componentType" : 5126,
            "count" : 7960,
            "max" : [
                1,
                0.594224750995636,
                1
            ],
            "min" : [
                -1,
                -1,
                -1
            ],
            "type" : "VEC3"
        },
        {
            "bufferView" : 1,
            "componentType" : 5126,
            "count" : 7960,
            "type" : "VEC3"
        },
        {
            "bufferView" : 2,
            "componentType" : 5126,
            "count" : 7960,
            "type" : "VEC2"
        },
        {
            "bufferView" : 3,
            "componentType" : 5123,
            "count" : 11940,
            "type" : "SCALAR"
        },
        {
            "bufferView" : 4,
            "componentType" : 5126,
            "count" : 56,
            "max" : [
                1,
                0.7026606798171997,
                1
            ],
            "min" : [
                -1,
                -1,
                -1
            ],
            "type" : "VEC3"
        },
        {
            "bufferView" : 5,
            "componentType" : 5126,
            "count" : 56,
            "type" : "VEC3"
        },
        {
            "bufferView" : 6,
            "componentType" : 5126,
            "count" : 56,
            "type" : "VEC2"
        },
        {
            "bufferView" : 7,
            "componentType" : 5123,
            "count" : 84,
            "type" : "SCALAR"
        },
        {
            "bufferView" : 8,
            "componentType" : 5126,
            "count" : 7960,
            "max" : [
                0.7163206338882446,
                1.4825477600097656,
                0.7163206338882446
            ],
            "min" : [
                -0.7163206338882446,
                0.010989367961883545,
                -0.7163206338882446
            ],
            "type" : "VEC3"
        },
        {
            "bufferView" : 9,
            "componentType" : 5126,
            "count" : 7960,
            "type" : "VEC3"
        },
        {
            "bufferView" : 10,
            "componentType" : 5126,
            "count" : 7960,
            "type" : "VEC2"
        },
        {
            "bufferView" : 11,
            "componentType" : 5123,
            "count" : 11940,
            "type" : "SCALAR"
        },
        {
            "bufferView" : 12,
            "componentType" : 5126,
            "count" : 36,
            "max" : [
                1,
                1,
                1
            ],
            "min" : [
                -1,
                -1,
                -1
            ],
            "type" : "VEC3"
        },
        {
            "bufferView" : 13,
            "componentType" : 5126,
            "count" : 36,
            "type" : "VEC3"
        },
        {
            "bufferView" : 14,
            "componentType" : 5126,
            "count" : 36,
            "type" : "VEC2"
        },
        {
            "bufferView" : 15,
            "componentType" : 5123,
            "count" : 54,
            "type" : "SCALAR"
        },
        {
            "bufferView" : 16,
            "componentType" : 5126,
            "count" : 4,
            "max" : [
                0.9065274596214294,
                1,
                0.9065274596214294
            ],
            "min" : [
                -0.9065274596214294,
                1,
                -0.9065274596214294
            ],
            "type" : "VEC3"
        },
        {
            "bufferView" : 17,
            "componentType" : 5126,
            "count" : 4,
            "type" : "VEC3"
        },
        {
            "bufferView" : 18,
            "componentType" : 5126,
            "count" : 4,
            "type" : "VEC2"
        },
        {
            "bufferView" : 19,
            "componentType" : 5123,
            "count" : 6,
            "type" : "SCALAR"
        }
    ],
    "bufferViews" : [
        {
            "buffer" : 0,
            "byteLength" : 95520,
            "byteOffset" : 0
        },
        {
            "buffer" : 0,
            "byteLength" : 95520,
            "byteOffset" : 95520
        },
        {
            "buffer" : 0,
            "byteLength" : 63680,
            "byteOffset" : 191040
        },
        {
            "buffer" : 0,
            "byteLength" : 23880,
            "byteOffset" : 254720
        },
        {
            "buffer" : 0,
            "byteLength" : 672,
            "byteOffset" : 278600
        },
        {
            "buffer" : 0,
            "byteLength" : 672,
            "byteOffset" : 279272
        },
        {
            "buffer" : 0,
            "byteLength" : 448,
            "byteOffset" : 279944
        },
        {
            "buffer" : 0,
            "byteLength" : 168,
            "byteOffset" : 280392
        },
        {
            "buffer" : 0,
            "byteLength" : 95520,
            "byteOffset" : 280560
        },
        {
            "buffer" : 0,
            "byteLength" : 95520,
            "byteOffset" : 376080
        },
        {
            "buffer" : 0,
            "byteLength" : 63680,
            "byteOffset" : 471600
        },
        {
            "buffer" : 0,
            "byteLength" : 23880,
            "byteOffset" : 535280
        },
        {
            "buffer" : 0,
            "byteLength" : 432,
            "byteOffset" : 559160
        },
        {
            "buffer" : 0,
            "byteLength" : 432,
            "byteOffset" : 559592
        },
        {
            "buffer" : 0,
            "byteLength" : 288,
            "byteOffset" : 560024
        },
        {
            "buffer" : 0,
            "byteLength" : 108,
            "byteOffset" : 560312
        },
        {
            "buffer" : 0,
            "byteLength" : 48,
            "byteOffset" : 560420
        },
        {
            "buffer" : 0,
            "byteLength" : 48,
            "byteOffset" : 560468
        },
        {
            "buffer" : 0,
            "byteLength" : 32,
            "byteOffset" : 560516
        },
        {
            "buffer" : 0,
            "byteLength" : 12,
            "byteOffset" : 560548
        }
    ],
    "buffers" : [
        {
            "byteLength" : 560560,
            "uri" : "data:application/octet-stream;base64,"
        }
    ]
}
